<svg width="3740" height="1071" viewBox="0 0 3740 1071" fill="none" xmlns="http://www.w3.org/2000/svg">
<path d="M1295.18 647.025H1132.65V590.65H1295.18V647.025ZM1205.53 420.425H1222.58L1108.73 743H1045.48L1182.7 358H1245.13L1382.63 743H1319.1L1205.53 420.425ZM1417.05 743V469.925H1471.78L1477 521.35L1459.95 505.125C1473.15 492.108 1487.45 482.208 1502.85 475.425C1518.43 468.642 1535.39 465.25 1553.73 465.25C1590.39 465.25 1617.25 476.8 1634.3 499.9C1651.35 523 1659.88 553.525 1659.88 591.475V743H1598.55V594.775C1598.55 568.008 1593.88 548.392 1584.53 535.925C1575.18 523.275 1559.78 516.95 1538.33 516.95C1521.64 516.95 1507.43 520.8 1495.7 528.5C1483.97 536.2 1474.8 547.292 1468.2 561.775L1478.38 529.325V743H1417.05ZM1735.52 876.1L1796.85 727.05L1683.27 469.925H1751.75L1827.1 655.55L1900.25 469.925H1968.45L1799.05 876.1H1735.52ZM2078.44 748.5C2058.27 748.5 2040.67 746.392 2025.64 742.175C2010.61 737.775 1997.31 732.733 1985.76 727.05L1991.81 672.325C2002.81 679.475 2015.37 685.892 2029.49 691.575C2043.61 697.075 2059.19 699.825 2076.24 699.825C2091.27 699.825 2102.73 697.442 2110.61 692.675C2118.5 687.725 2122.44 680.208 2122.44 670.125C2122.44 662.242 2120.15 655.825 2115.56 650.875C2110.98 645.742 2104.75 641.433 2096.86 637.95C2089.16 634.283 2080.46 630.8 2070.74 627.5C2055.52 622.367 2041.77 616.592 2029.49 610.175C2017.21 603.575 2007.4 595.142 2000.06 584.875C1992.91 574.608 1989.34 561.317 1989.34 545C1989.34 529.967 1993.19 516.4 2000.89 504.3C2008.59 492.017 2019.96 482.3 2034.99 475.15C2050.02 468 2068.72 464.425 2091.09 464.425C2108.69 464.425 2123.91 466.35 2136.74 470.2C2149.76 474.05 2161.49 478.817 2171.94 484.5L2165.89 538.125C2155.07 530.242 2143.8 523.733 2132.06 518.6C2120.33 513.283 2107.04 510.625 2092.19 510.625C2078.99 510.625 2068.54 513.192 2060.84 518.325C2053.32 523.458 2049.56 531.067 2049.56 541.15C2049.56 552.517 2054.33 560.858 2063.86 566.175C2073.4 571.492 2088.25 577.817 2108.41 585.15C2119.05 589 2128.95 593.217 2138.11 597.8C2147.28 602.383 2155.35 607.792 2162.31 614.025C2169.28 620.258 2174.69 627.683 2178.54 636.3C2182.39 644.917 2184.31 655.183 2184.31 667.1C2184.31 682.5 2180.65 696.342 2173.31 708.625C2165.98 720.908 2154.52 730.625 2138.94 737.775C2123.36 744.925 2103.19 748.5 2078.44 748.5ZM2231.85 876.1V469.925H2280.8L2292.62 521.35L2274.47 513.375C2286.75 498.708 2300.6 487.067 2316 478.45C2331.58 469.65 2350.55 465.25 2372.92 465.25C2399.14 465.25 2421.23 471.667 2439.2 484.5C2457.35 497.333 2471.1 514.475 2480.45 535.925C2489.8 557.375 2494.47 581.025 2494.47 606.875C2494.47 632.725 2489.89 656.375 2480.72 677.825C2471.55 699.275 2457.99 716.417 2440.02 729.25C2422.05 742.083 2399.69 748.5 2372.92 748.5C2351.47 748.5 2333.32 745.017 2318.47 738.05C2303.8 731.083 2290.7 720.267 2279.15 705.6L2293.17 693.225V876.1H2231.85ZM2363.02 696.8C2384.65 696.8 2401.52 688.642 2413.62 672.325C2425.72 655.825 2431.77 634.008 2431.77 606.875C2431.77 579.558 2425.72 557.742 2413.62 541.425C2401.52 525.108 2384.65 516.95 2363.02 516.95C2347.62 516.95 2334.42 520.617 2323.42 527.95C2312.6 535.1 2304.35 545.367 2298.67 558.75C2292.99 572.133 2290.15 588.175 2290.15 606.875C2290.15 625.942 2292.99 642.167 2298.67 655.55C2304.35 668.933 2312.6 679.2 2323.42 686.35C2334.42 693.317 2347.62 696.8 2363.02 696.8ZM2542.82 743V330.5H2604.42V512.55L2588.19 504.575C2600.11 493.575 2613.04 484.317 2626.97 476.8C2640.9 469.1 2658.04 465.25 2678.39 465.25C2702.23 465.25 2721.84 470.567 2737.24 481.2C2752.64 491.833 2764.01 506.592 2771.34 525.475C2778.68 544.358 2782.34 566.267 2782.34 591.2V743H2721.02V596.425C2721.02 569.292 2716.34 549.308 2706.99 536.475C2697.83 523.458 2683.25 516.95 2663.27 516.95C2646.95 516.95 2633.11 520.983 2621.74 529.05C2610.56 537.117 2601.12 547.933 2593.42 561.5L2604.42 527.125V743H2542.82ZM2976.14 748.5C2943.5 748.5 2916.19 741.9 2894.19 728.7C2872.37 715.5 2855.87 698.083 2844.69 676.45C2833.69 654.633 2828.19 630.708 2828.19 604.675C2828.19 579.558 2833.32 556.458 2843.59 535.375C2854.04 514.108 2869.16 497.15 2888.96 484.5C2908.95 471.667 2933.15 465.25 2961.56 465.25C2986.5 465.25 3007.76 470.292 3025.36 480.375C3042.96 490.458 3056.35 504.392 3065.51 522.175C3074.86 539.775 3079.54 559.942 3079.54 582.675C3079.54 587.808 3079.17 593.217 3078.44 598.9C3077.89 604.4 3077.06 610.083 3075.96 615.95H2891.71C2894.28 635.933 2899.87 651.792 2908.49 663.525C2917.1 675.258 2927.83 683.783 2940.66 689.1C2953.5 694.233 2967.34 696.8 2982.19 696.8C2996.85 696.8 3010.97 695.058 3024.54 691.575C3038.29 687.908 3051.03 682.958 3062.76 676.725L3067.44 727.6C3056.99 732.733 3044.06 737.5 3028.66 741.9C3013.26 746.3 2995.75 748.5 2976.14 748.5ZM2894.46 574.15H3016.84C3016.84 564.25 3014.91 554.992 3011.06 546.375C3007.4 537.575 3001.44 530.517 2993.19 525.2C2985.12 519.7 2974.49 516.95 2961.29 516.95C2942.04 516.95 2927 522.175 2916.19 532.625C2905.55 543.075 2898.31 556.917 2894.46 574.15ZM3127.21 743V469.925H3182.76L3185.78 504.85C3195.32 493.667 3206.41 484.133 3219.06 476.25C3231.71 468.367 3245.37 464.425 3260.03 464.425C3264.43 464.425 3268.56 464.883 3272.41 465.8L3267.46 528.225C3263.97 527.308 3260.49 526.758 3257.01 526.575C3253.52 526.208 3249.95 526.025 3246.28 526.025C3233.82 526.025 3222.36 528.867 3211.91 534.55C3201.46 540.233 3194.12 546.833 3189.91 554.35V743H3127.21ZM3432.14 748.5C3399.51 748.5 3372.19 741.9 3350.19 728.7C3328.38 715.5 3311.88 698.083 3300.69 676.45C3289.69 654.633 3284.19 630.708 3284.19 604.675C3284.19 579.558 3289.33 556.458 3299.59 535.375C3310.04 514.108 3325.17 497.15 3344.97 484.5C3364.95 471.667 3389.15 465.25 3417.57 465.25C3442.5 465.25 3463.77 470.292 3481.37 480.375C3498.97 490.458 3512.35 504.392 3521.52 522.175C3530.87 539.775 3535.54 559.942 3535.54 582.675C3535.54 587.808 3535.18 593.217 3534.44 598.9C3533.89 604.4 3533.07 610.083 3531.97 615.95H3347.72C3350.29 635.933 3355.88 651.792 3364.49 663.525C3373.11 675.258 3383.84 683.783 3396.67 689.1C3409.5 694.233 3423.34 696.8 3438.19 696.8C3452.86 696.8 3466.98 695.058 3480.54 691.575C3494.29 687.908 3507.04 682.958 3518.77 676.725L3523.44 727.6C3512.99 732.733 3500.07 737.5 3484.67 741.9C3469.27 746.3 3451.76 748.5 3432.14 748.5ZM3350.47 574.15H3472.84C3472.84 564.25 3470.92 554.992 3467.07 546.375C3463.4 537.575 3457.44 530.517 3449.19 525.2C3441.13 519.7 3430.49 516.95 3417.29 516.95C3398.04 516.95 3383.01 522.175 3372.19 532.625C3361.56 543.075 3354.32 556.917 3350.47 574.15Z" fill="#252116"/>
<path d="M864 603C864 680.32 801.32 743 724 743C646.68 743 584 680.32 584 603C584 525.68 646.68 463 724 463C801.32 463 864 525.68 864 603Z" fill="url(#paint0_linear_16_24)"/>
<circle cx="438" cy="747" r="115" fill="url(#paint1_linear_16_24)"/>
<circle cx="378" cy="382" r="190" fill="url(#paint2_linear_16_24)"/>
<defs>
<linearGradient id="paint0_linear_16_24" x1="723.813" y1="455.696" x2="723.813" y2="735.696" gradientUnits="userSpaceOnUse">
<stop stop-color="#FECA6F"/>
<stop offset="1" stop-color="#CB8E00"/>
</linearGradient>
<linearGradient id="paint1_linear_16_24" x1="438" y1="632" x2="438" y2="862" gradientUnits="userSpaceOnUse">
<stop stop-color="#575245"/>
<stop offset="1" stop-color="#252116"/>
</linearGradient>
<linearGradient id="paint2_linear_16_24" x1="378" y1="192" x2="378" y2="572" gradientUnits="userSpaceOnUse">
<stop stop-color="#287A57"/>
<stop offset="1" stop-color="#194F39"/>
</linearGradient>
</defs>
</svg>
